<mxfile host="app.diagrams.net" modified="2023-09-05T04:58:19.805Z" agent="Mozilla/5.0 (Windows NT 10.0; Win64; x64) AppleWebKit/537.36 (KHTML, like Gecko) Chrome/116.0.0.0 Safari/537.36" etag="FjsajrjpsrbGOOzN6OtJ" version="21.7.2" type="device">
  <diagram name="Página-1" id="aOtq5-roxILzaAKcTLqN">
    <mxGraphModel dx="994" dy="1069" grid="1" gridSize="10" guides="1" tooltips="1" connect="1" arrows="1" fold="1" page="1" pageScale="1" pageWidth="827" pageHeight="1169" math="0" shadow="0">
      <root>
        <mxCell id="0" />
        <mxCell id="1" parent="0" />
        <mxCell id="iJVxOnU3X22Zu05dpuTJ-18" style="edgeStyle=orthogonalEdgeStyle;rounded=0;orthogonalLoop=1;jettySize=auto;html=1;entryX=0;entryY=0.5;entryDx=0;entryDy=0;endArrow=none;endFill=0;" edge="1" parent="1" source="iJVxOnU3X22Zu05dpuTJ-1" target="iJVxOnU3X22Zu05dpuTJ-2">
          <mxGeometry relative="1" as="geometry" />
        </mxCell>
        <mxCell id="iJVxOnU3X22Zu05dpuTJ-1" value="Clinica" style="rounded=0;whiteSpace=wrap;html=1;" vertex="1" parent="1">
          <mxGeometry x="77" y="90" width="120" height="60" as="geometry" />
        </mxCell>
        <mxCell id="iJVxOnU3X22Zu05dpuTJ-19" style="edgeStyle=orthogonalEdgeStyle;shape=connector;rounded=0;orthogonalLoop=1;jettySize=auto;html=1;entryX=0;entryY=0.5;entryDx=0;entryDy=0;labelBackgroundColor=default;strokeColor=default;fontFamily=Helvetica;fontSize=11;fontColor=default;endArrow=none;endFill=0;" edge="1" parent="1" source="iJVxOnU3X22Zu05dpuTJ-2" target="iJVxOnU3X22Zu05dpuTJ-3">
          <mxGeometry relative="1" as="geometry" />
        </mxCell>
        <mxCell id="iJVxOnU3X22Zu05dpuTJ-2" value="possui" style="rhombus;whiteSpace=wrap;html=1;" vertex="1" parent="1">
          <mxGeometry x="257" y="90" width="80" height="60" as="geometry" />
        </mxCell>
        <mxCell id="iJVxOnU3X22Zu05dpuTJ-20" style="edgeStyle=orthogonalEdgeStyle;shape=connector;rounded=0;orthogonalLoop=1;jettySize=auto;html=1;entryX=0.5;entryY=0;entryDx=0;entryDy=0;labelBackgroundColor=default;strokeColor=default;fontFamily=Helvetica;fontSize=11;fontColor=default;endArrow=none;endFill=0;" edge="1" parent="1" source="iJVxOnU3X22Zu05dpuTJ-3" target="iJVxOnU3X22Zu05dpuTJ-6">
          <mxGeometry relative="1" as="geometry" />
        </mxCell>
        <mxCell id="iJVxOnU3X22Zu05dpuTJ-3" value="Veterinario" style="rounded=0;whiteSpace=wrap;html=1;" vertex="1" parent="1">
          <mxGeometry x="407" y="90" width="120" height="60" as="geometry" />
        </mxCell>
        <mxCell id="iJVxOnU3X22Zu05dpuTJ-45" style="edgeStyle=orthogonalEdgeStyle;shape=connector;rounded=0;orthogonalLoop=1;jettySize=auto;html=1;entryX=0.5;entryY=1;entryDx=0;entryDy=0;labelBackgroundColor=default;strokeColor=default;fontFamily=Helvetica;fontSize=11;fontColor=default;endArrow=none;endFill=0;" edge="1" parent="1" source="iJVxOnU3X22Zu05dpuTJ-5" target="iJVxOnU3X22Zu05dpuTJ-1">
          <mxGeometry relative="1" as="geometry" />
        </mxCell>
        <mxCell id="iJVxOnU3X22Zu05dpuTJ-5" value="Endereço" style="ellipse;whiteSpace=wrap;html=1;" vertex="1" parent="1">
          <mxGeometry x="87" y="200" width="90" height="50" as="geometry" />
        </mxCell>
        <mxCell id="iJVxOnU3X22Zu05dpuTJ-21" style="edgeStyle=orthogonalEdgeStyle;shape=connector;rounded=0;orthogonalLoop=1;jettySize=auto;html=1;entryX=0.5;entryY=0;entryDx=0;entryDy=0;labelBackgroundColor=default;strokeColor=default;fontFamily=Helvetica;fontSize=11;fontColor=default;endArrow=none;endFill=0;" edge="1" parent="1" source="iJVxOnU3X22Zu05dpuTJ-6" target="iJVxOnU3X22Zu05dpuTJ-7">
          <mxGeometry relative="1" as="geometry" />
        </mxCell>
        <mxCell id="iJVxOnU3X22Zu05dpuTJ-6" value="possui" style="rhombus;whiteSpace=wrap;html=1;" vertex="1" parent="1">
          <mxGeometry x="427" y="200" width="80" height="60" as="geometry" />
        </mxCell>
        <mxCell id="iJVxOnU3X22Zu05dpuTJ-22" style="edgeStyle=orthogonalEdgeStyle;shape=connector;rounded=0;orthogonalLoop=1;jettySize=auto;html=1;entryX=0.5;entryY=0;entryDx=0;entryDy=0;labelBackgroundColor=default;strokeColor=default;fontFamily=Helvetica;fontSize=11;fontColor=default;endArrow=none;endFill=0;" edge="1" parent="1" source="iJVxOnU3X22Zu05dpuTJ-7" target="iJVxOnU3X22Zu05dpuTJ-8">
          <mxGeometry relative="1" as="geometry" />
        </mxCell>
        <mxCell id="iJVxOnU3X22Zu05dpuTJ-7" value="Atendimento" style="rounded=0;whiteSpace=wrap;html=1;" vertex="1" parent="1">
          <mxGeometry x="407" y="310" width="120" height="60" as="geometry" />
        </mxCell>
        <mxCell id="iJVxOnU3X22Zu05dpuTJ-23" style="edgeStyle=orthogonalEdgeStyle;shape=connector;rounded=0;orthogonalLoop=1;jettySize=auto;html=1;entryX=0.5;entryY=0;entryDx=0;entryDy=0;labelBackgroundColor=default;strokeColor=default;fontFamily=Helvetica;fontSize=11;fontColor=default;endArrow=none;endFill=0;" edge="1" parent="1" source="iJVxOnU3X22Zu05dpuTJ-8" target="iJVxOnU3X22Zu05dpuTJ-9">
          <mxGeometry relative="1" as="geometry" />
        </mxCell>
        <mxCell id="iJVxOnU3X22Zu05dpuTJ-8" value="possui" style="rhombus;whiteSpace=wrap;html=1;" vertex="1" parent="1">
          <mxGeometry x="427" y="420" width="80" height="60" as="geometry" />
        </mxCell>
        <mxCell id="iJVxOnU3X22Zu05dpuTJ-24" style="edgeStyle=orthogonalEdgeStyle;shape=connector;rounded=0;orthogonalLoop=1;jettySize=auto;html=1;entryX=0.5;entryY=0;entryDx=0;entryDy=0;labelBackgroundColor=default;strokeColor=default;fontFamily=Helvetica;fontSize=11;fontColor=default;endArrow=none;endFill=0;" edge="1" parent="1" source="iJVxOnU3X22Zu05dpuTJ-9" target="iJVxOnU3X22Zu05dpuTJ-14">
          <mxGeometry relative="1" as="geometry" />
        </mxCell>
        <mxCell id="iJVxOnU3X22Zu05dpuTJ-26" style="edgeStyle=orthogonalEdgeStyle;shape=connector;rounded=0;orthogonalLoop=1;jettySize=auto;html=1;entryX=0;entryY=0.5;entryDx=0;entryDy=0;labelBackgroundColor=default;strokeColor=default;fontFamily=Helvetica;fontSize=11;fontColor=default;endArrow=none;endFill=0;" edge="1" parent="1" source="iJVxOnU3X22Zu05dpuTJ-9" target="iJVxOnU3X22Zu05dpuTJ-12">
          <mxGeometry relative="1" as="geometry" />
        </mxCell>
        <mxCell id="iJVxOnU3X22Zu05dpuTJ-28" style="edgeStyle=orthogonalEdgeStyle;shape=connector;rounded=0;orthogonalLoop=1;jettySize=auto;html=1;entryX=1;entryY=0.5;entryDx=0;entryDy=0;labelBackgroundColor=default;strokeColor=default;fontFamily=Helvetica;fontSize=11;fontColor=default;endArrow=none;endFill=0;" edge="1" parent="1" source="iJVxOnU3X22Zu05dpuTJ-9" target="iJVxOnU3X22Zu05dpuTJ-10">
          <mxGeometry relative="1" as="geometry" />
        </mxCell>
        <mxCell id="iJVxOnU3X22Zu05dpuTJ-9" value="Pet" style="rounded=0;whiteSpace=wrap;html=1;" vertex="1" parent="1">
          <mxGeometry x="407" y="530" width="120" height="60" as="geometry" />
        </mxCell>
        <mxCell id="iJVxOnU3X22Zu05dpuTJ-29" style="edgeStyle=orthogonalEdgeStyle;shape=connector;rounded=0;orthogonalLoop=1;jettySize=auto;html=1;entryX=1;entryY=0.5;entryDx=0;entryDy=0;labelBackgroundColor=default;strokeColor=default;fontFamily=Helvetica;fontSize=11;fontColor=default;endArrow=none;endFill=0;" edge="1" parent="1" source="iJVxOnU3X22Zu05dpuTJ-10" target="iJVxOnU3X22Zu05dpuTJ-11">
          <mxGeometry relative="1" as="geometry" />
        </mxCell>
        <mxCell id="iJVxOnU3X22Zu05dpuTJ-10" value="possui" style="rhombus;whiteSpace=wrap;html=1;" vertex="1" parent="1">
          <mxGeometry x="267" y="530" width="80" height="60" as="geometry" />
        </mxCell>
        <mxCell id="iJVxOnU3X22Zu05dpuTJ-11" value="Dono" style="rounded=0;whiteSpace=wrap;html=1;" vertex="1" parent="1">
          <mxGeometry x="97" y="530" width="120" height="60" as="geometry" />
        </mxCell>
        <mxCell id="iJVxOnU3X22Zu05dpuTJ-27" style="edgeStyle=orthogonalEdgeStyle;shape=connector;rounded=0;orthogonalLoop=1;jettySize=auto;html=1;entryX=0;entryY=0.5;entryDx=0;entryDy=0;labelBackgroundColor=default;strokeColor=default;fontFamily=Helvetica;fontSize=11;fontColor=default;endArrow=none;endFill=0;" edge="1" parent="1" source="iJVxOnU3X22Zu05dpuTJ-12" target="iJVxOnU3X22Zu05dpuTJ-13">
          <mxGeometry relative="1" as="geometry" />
        </mxCell>
        <mxCell id="iJVxOnU3X22Zu05dpuTJ-12" value="possui" style="rhombus;whiteSpace=wrap;html=1;" vertex="1" parent="1">
          <mxGeometry x="587" y="530" width="80" height="60" as="geometry" />
        </mxCell>
        <mxCell id="iJVxOnU3X22Zu05dpuTJ-13" value="TipoPet" style="rounded=0;whiteSpace=wrap;html=1;" vertex="1" parent="1">
          <mxGeometry x="707" y="530" width="120" height="60" as="geometry" />
        </mxCell>
        <mxCell id="iJVxOnU3X22Zu05dpuTJ-25" style="edgeStyle=orthogonalEdgeStyle;shape=connector;rounded=0;orthogonalLoop=1;jettySize=auto;html=1;entryX=0.5;entryY=0;entryDx=0;entryDy=0;labelBackgroundColor=default;strokeColor=default;fontFamily=Helvetica;fontSize=11;fontColor=default;endArrow=none;endFill=0;" edge="1" parent="1" source="iJVxOnU3X22Zu05dpuTJ-14" target="iJVxOnU3X22Zu05dpuTJ-15">
          <mxGeometry relative="1" as="geometry" />
        </mxCell>
        <mxCell id="iJVxOnU3X22Zu05dpuTJ-14" value="possui" style="rhombus;whiteSpace=wrap;html=1;" vertex="1" parent="1">
          <mxGeometry x="427" y="650" width="80" height="60" as="geometry" />
        </mxCell>
        <mxCell id="iJVxOnU3X22Zu05dpuTJ-15" value="Raca" style="rounded=0;whiteSpace=wrap;html=1;" vertex="1" parent="1">
          <mxGeometry x="407" y="770" width="120" height="60" as="geometry" />
        </mxCell>
        <mxCell id="iJVxOnU3X22Zu05dpuTJ-31" style="edgeStyle=orthogonalEdgeStyle;shape=connector;rounded=0;orthogonalLoop=1;jettySize=auto;html=1;entryX=0.25;entryY=0;entryDx=0;entryDy=0;labelBackgroundColor=default;strokeColor=default;fontFamily=Helvetica;fontSize=11;fontColor=default;endArrow=none;endFill=0;" edge="1" parent="1" source="iJVxOnU3X22Zu05dpuTJ-16" target="iJVxOnU3X22Zu05dpuTJ-9">
          <mxGeometry relative="1" as="geometry">
            <Array as="points">
              <mxPoint x="346" y="480" />
              <mxPoint x="437" y="480" />
            </Array>
          </mxGeometry>
        </mxCell>
        <mxCell id="iJVxOnU3X22Zu05dpuTJ-16" value="Data Nascimento" style="ellipse;whiteSpace=wrap;html=1;" vertex="1" parent="1">
          <mxGeometry x="301" y="420" width="90" height="50" as="geometry" />
        </mxCell>
        <mxCell id="iJVxOnU3X22Zu05dpuTJ-32" style="edgeStyle=orthogonalEdgeStyle;shape=connector;rounded=0;orthogonalLoop=1;jettySize=auto;html=1;entryX=0.75;entryY=0;entryDx=0;entryDy=0;labelBackgroundColor=default;strokeColor=default;fontFamily=Helvetica;fontSize=11;fontColor=default;endArrow=none;endFill=0;" edge="1" parent="1" source="iJVxOnU3X22Zu05dpuTJ-17" target="iJVxOnU3X22Zu05dpuTJ-9">
          <mxGeometry relative="1" as="geometry">
            <Array as="points">
              <mxPoint x="602" y="480" />
              <mxPoint x="497" y="480" />
            </Array>
          </mxGeometry>
        </mxCell>
        <mxCell id="iJVxOnU3X22Zu05dpuTJ-17" value="Nome" style="ellipse;whiteSpace=wrap;html=1;" vertex="1" parent="1">
          <mxGeometry x="557" y="425" width="90" height="50" as="geometry" />
        </mxCell>
        <mxCell id="iJVxOnU3X22Zu05dpuTJ-33" value="1" style="text;html=1;align=center;verticalAlign=middle;resizable=0;points=[];autosize=1;strokeColor=none;fillColor=none;fontSize=11;fontFamily=Helvetica;fontColor=default;" vertex="1" parent="1">
          <mxGeometry x="197" y="90" width="30" height="30" as="geometry" />
        </mxCell>
        <mxCell id="iJVxOnU3X22Zu05dpuTJ-34" value="N" style="text;html=1;align=center;verticalAlign=middle;resizable=0;points=[];autosize=1;strokeColor=none;fillColor=none;fontSize=11;fontFamily=Helvetica;fontColor=default;" vertex="1" parent="1">
          <mxGeometry x="377" y="90" width="30" height="30" as="geometry" />
        </mxCell>
        <mxCell id="iJVxOnU3X22Zu05dpuTJ-35" value="1" style="text;html=1;align=center;verticalAlign=middle;resizable=0;points=[];autosize=1;strokeColor=none;fillColor=none;fontSize=11;fontFamily=Helvetica;fontColor=default;" vertex="1" parent="1">
          <mxGeometry x="467" y="150" width="30" height="30" as="geometry" />
        </mxCell>
        <mxCell id="iJVxOnU3X22Zu05dpuTJ-36" value="1" style="text;html=1;align=center;verticalAlign=middle;resizable=0;points=[];autosize=1;strokeColor=none;fillColor=none;fontSize=11;fontFamily=Helvetica;fontColor=default;" vertex="1" parent="1">
          <mxGeometry x="467" y="500" width="30" height="30" as="geometry" />
        </mxCell>
        <mxCell id="iJVxOnU3X22Zu05dpuTJ-37" value="1" style="text;html=1;align=center;verticalAlign=middle;resizable=0;points=[];autosize=1;strokeColor=none;fillColor=none;fontSize=11;fontFamily=Helvetica;fontColor=default;" vertex="1" parent="1">
          <mxGeometry x="677" y="530" width="30" height="30" as="geometry" />
        </mxCell>
        <mxCell id="iJVxOnU3X22Zu05dpuTJ-38" value="1" style="text;html=1;align=center;verticalAlign=middle;resizable=0;points=[];autosize=1;strokeColor=none;fillColor=none;fontSize=11;fontFamily=Helvetica;fontColor=default;" vertex="1" parent="1">
          <mxGeometry x="467" y="740" width="30" height="30" as="geometry" />
        </mxCell>
        <mxCell id="iJVxOnU3X22Zu05dpuTJ-39" value="1" style="text;html=1;align=center;verticalAlign=middle;resizable=0;points=[];autosize=1;strokeColor=none;fillColor=none;fontSize=11;fontFamily=Helvetica;fontColor=default;" vertex="1" parent="1">
          <mxGeometry x="217" y="530" width="30" height="30" as="geometry" />
        </mxCell>
        <mxCell id="iJVxOnU3X22Zu05dpuTJ-40" value="N" style="text;html=1;align=center;verticalAlign=middle;resizable=0;points=[];autosize=1;strokeColor=none;fillColor=none;fontSize=11;fontFamily=Helvetica;fontColor=default;" vertex="1" parent="1">
          <mxGeometry x="467" y="280" width="30" height="30" as="geometry" />
        </mxCell>
        <mxCell id="iJVxOnU3X22Zu05dpuTJ-41" value="N" style="text;html=1;align=center;verticalAlign=middle;resizable=0;points=[];autosize=1;strokeColor=none;fillColor=none;fontSize=11;fontFamily=Helvetica;fontColor=default;" vertex="1" parent="1">
          <mxGeometry x="467" y="370" width="30" height="30" as="geometry" />
        </mxCell>
        <mxCell id="iJVxOnU3X22Zu05dpuTJ-42" value="N" style="text;html=1;align=center;verticalAlign=middle;resizable=0;points=[];autosize=1;strokeColor=none;fillColor=none;fontSize=11;fontFamily=Helvetica;fontColor=default;" vertex="1" parent="1">
          <mxGeometry x="527" y="530" width="30" height="30" as="geometry" />
        </mxCell>
        <mxCell id="iJVxOnU3X22Zu05dpuTJ-43" value="N" style="text;html=1;align=center;verticalAlign=middle;resizable=0;points=[];autosize=1;strokeColor=none;fillColor=none;fontSize=11;fontFamily=Helvetica;fontColor=default;" vertex="1" parent="1">
          <mxGeometry x="377" y="530" width="30" height="30" as="geometry" />
        </mxCell>
        <mxCell id="iJVxOnU3X22Zu05dpuTJ-44" value="N" style="text;html=1;align=center;verticalAlign=middle;resizable=0;points=[];autosize=1;strokeColor=none;fillColor=none;fontSize=11;fontFamily=Helvetica;fontColor=default;" vertex="1" parent="1">
          <mxGeometry x="467" y="590" width="30" height="30" as="geometry" />
        </mxCell>
        <mxCell id="iJVxOnU3X22Zu05dpuTJ-59" value="" style="shape=image;verticalLabelPosition=bottom;labelBackgroundColor=default;verticalAlign=top;aspect=fixed;imageAspect=0;image=data:image/png,iVBORw0KGgoAAAANSUhEUgAABNEAAAFqCAYAAAA0mcxvAAAAAXNSR0IArs4c6QAAAARnQU1BAACxjwv8YQUAAAAJcEhZcwAADsMAAA7DAcdvqGQAAFoHSURBVHhe7d1/qBX3nf/xzy3K1lu25updKljsjbVVUtKICDGoaBWihZRvq6CmagoNrCa2K6YaWkSbKrJltRW30ap/FBJ1EwVtly27WjZWUdEuVkz6R66JMdatYLpXbfrj2qJwv74+zvvk42TOPefe82PmzDwfMJxzZubMnB/z+cx83vP+zLT13eUAAAAAAAAAlPWR6BEAAAAAAABAGQTRAAAAAAAAgAoIogEAAAAAAAAVEEQDAAAAAAAAKiCIBgAAAAAAAFRAEA0AAAAAAACogCAaAAAAAAAAUAFBNAAAAAAAAKACgmgAAAAAAABABQTRAAAAAAAAgAra+u6Kng/KzJkz3fHjx6NXQGubMWOGO3bsWPQKhnKOPKGcAwAAABiMmoNobW1trsZFAJnB9pyM3wV5wvYMAAAAYDAIogEBtudk/C7IE7bn2pCZijwhM7U5qDeQJ0WrNyi/yJN6lF+CaECA7TkZvwvyhO25Nvx+yBO25+bgd0aeFG17pvwiT+qxPXNjAQAAAAAAAKACgmgAAAAAAABABQTRAAAAAAAAgAoIogEAAAAAAAAVEEQDAAAAAAAAKiCIBgAAAAAAAFRAEK0JNm7c6G+lasO+ffuiKfemzZ07112/ft2dOnXKT9djJeH7ANTHrVu33PLlyz9UtvRc4zRN85Rz4cIFt3Xr1uhV9Wy9lZY/UI1aLgAAAAAUEUG0BrIGrIJiPT09rq+vz3V3d7vNmzf7IFjc1KlT/Tx6rGTdunXu8OHDbuTIkdEYALUaNmyYmz59ujty5Igvq0bPNU7TNE8SBdpWrlzp/vznP0djqqdl7ty50w/llj8YjVouAAAAABQRQbQGOnfunNu1a5cPeFmwa/z48e78+fN+XFyYiRZmkDz//PN+fJgdE89Es/dqmDhxos+IEcugsWlJwTsAH5g8ebJ75JFH3NGjR6Mxzl2+fNmP07R4mbLyunbtWh9oW79+fSnzKyyXSeVV5VGP9p74+3bv3u3Ls56HGax6rnEawvJeabmieW2ZGvQeoMjCMp1UHjQuLH/1oOVZ2bUyWe919EfrHEzWLID0xPffA9mP6xhAxwZ2HAJg8Ox4O2nQvtymV1M2+1NLmRft57UM1B9BtAZSI3zOnDluwoQJ0ZiBO3PmjHv66ad9Jsy1a9d89lmcCseKFSvcyZMnXW9vr5syZYovNNph7tixwy1dutRnuO3du9c3qmst0ECejRkzxpchlRMdbKocnThxwo/7h3/4Bx8s6+rq8mVNZUpl78qVK27Tpk2+vG/YsMFnfmmcpmkezav36L0WzDIqm9/5zneiV/d77733fNBdy9yzZ4//PCrvP//5z312q4ZRo0aVynsoabl678KFC92aNWtKdYI+IztYFJllmkoYPBfbvzaSnVxbvHhxNKaxVI8MNmsWQPq079Y+XMcWy5Ytqyo4tmXLFo7/gTqx3mNWBnX8b73OtC8fSO+yagymzCuY99JLL0WvUG8E0TJODeTOzk4/6PmlS5eiKR84e/asn6ZgXbz7ljLedIZdw5IlS6J3AChH5Sbs0qlgmILZGvd///d/peeaT5lpoh1nnMqlaB5bpjLatAM0s2bNip4lGzt2bOlRQXStRw3uV155xQfUVS9Y4z9UbrnhZxLVC6o7Dhw44F8DRWQnvHRgasFzsWDT66+/7vefOmgVHZja2WDL8tRgWZ9J2eNiGaI6q6xlGgXqLBNN8+t9WoaWZcv593//99I6w4w1fV4bH67PxsezWfU5k7Jmbb22rHAd9vlsGg1xIBt0bKET5Xa8Ikn1k8apvGu+2bNnc+IMaDDbB+vR9qHar9u+1MqmCctt/NghVG2Z13p13KJjDcUH2G/XH0G0jFP2Snt7e/QqWVJgTVSIVJjU0FYwTZlqACqzLp0KeoWBJwWxrEGtnZV2THqt+eJULm3npXn1HguEVUvlP852zMqO07LU8K+WPpMF5gHcC5SpTOlscfzAVJdh2LZtm68LdBZY+1E7MNX+VOVPZV8ZHqZc9rjep0aslnP69Gn3xz/+0Y8v54033vDZrVqPPtN//dd/+QC8slJ1XVUdlGuolO0az2bVfPGsWY0Lz5xrnfqO+sxaljJdlYlr66dLGJBN5eonlW+VXZX71157zZ+MA9Bc2u9r/6/yqcs9HTp0yI9XEEz7dR03lNuXl1OuzGt/rmMDHb9oufXKiMMHCKI1kLJBwgPyRgmzVEKWQaNCROEBqmddOtVtUoOea5yCT9agVmPThqRuWCqXtvOy+dSYrfXg1bJm1BCuFGCPK1dXAEWl8qn9tPbXCnirbMW7dIbCyzQoyKZ969WrV0sHu+Wyx+19OsNsman90XK1fKtzLPvVslOlmmxXm7+/sh/+BjJp0iQfnFfQzb6XDvhXrVrlVq9ezU2NgIxQ+VQ5tTqpUv0EID22H7d9rE6G37hxo3TJGLUzLNNM+1xdWz2OMp8dBNEayApJeNbWUjqtW0g9WNcsO6DWsnWg/pGPfKR0EG+FDkBl1iB99dVX/WA7PguuaYenMqWzRyrPSV0jwnKpeZUVGk/fHoywMWw3L6lWvK5QY1jLWrBggX8NFE3SAajO7CZlWqns6uBUAScFt5QRquwyBa6sXFeTPV4v1WS7JmWzxunzK1Cn7xRnB/SiukbfrR71GIDBU1lXmVd51MlyZczqebn6KQysA8gO7UtVRkePHu33t+VQ5rOHIFoDqTCoq4QOym3j1sHu/PnzE+/OOVjKbNm+fXupgB08eNAXrs985jP+4FcFSgXt3Xff9QfKKlwA+qeAk8qLBgs+qUwrA0xlSGVKZU5lT2XQGuAqbwpiq8xbudS8eo/e299OshpatoLjqkvUlevxxx+veoepz7l//36fNq66Qo96TdcOFJGC39pfxg9A9TrpJj4quzrQVdBNgSrLMNW8I0aMiOYqr95ZoAqoq36qNdtVgTYF48p9NtVrWram67uH3VAANF+YDW9lvr/6icxRIJtUbrUPrpQ9RpnPHoJoTaCAmW3YGsIAmp7bxm4HqnpUwQhvEKDpms/eG75P7L0awoNodTOz8WoYaFpS1zMA91MZUnkJy5NYWbRypbJnrKzHy3Q4TsKyLvHyHp+uMmufI1y/xlmDP1xfueWKfS97f/jdgCJRRqaCR7qWiMqDBgsUWbZpXHiZBmWrKahdTWa53qd1WWaqll+remW7KiCv76ysPLEMV52EU3DevqPqGDsGqSbDDUBzDbZ+AtB46hGmcmn7WPVy0Qk4PSq7TJdh0v5b86knm3q0VUKZTw9BNAAAUCgWyFLwSEEkY8FoO6C1LtzKKFWASge1OiM8bdo0n72mYJKuE1aJlqn3aTmPPfaY+/jHPx5NGTwFwAeT7Wrf0bJmRV3T1Y1V2Xj6bgosah7Nq8x2ZezZNF2g3AL1ALLD6pmk+ska2xqvsg6guXS8oZPith+1pBY9rlmzxh+LaF8uuqFPpX259Ffm7USblqt9POqrrU+nXmugg6oaFwFkBttzMn4X5Anbc234/ZAnbM/Nwe+MPCna9kz5HTxdOmLhwoU+UEZvsGyox/ZMJhoAAAAAAABQAZloQIDtORm/C/KE7bk2/H7IE7bn5uB3Rp4UbXum/CJP6rE9k4kGAAAAAAAAVEAQDQAAAAAAAKiAIBoAAAAAAABQAUE0AAAAAAAAoAKCaAAAAAAAAEAFBNEAAAAAAACACtr6ary/Z1dXl/vtb38bvQJa26c+9Sl3+fLl6BUM5Rx5QjmvDbe6R56wPTcHvzPypGjbM+UXeVKP7bnmIFpahYrCjEZgu0pWtN+F7SDf+H9rw++HPGF7bg5+Z+RJ0bZnyi/ypB7bM0E0IMB2laxovwvbQb7x/9aGzFTkCZmpzUG9gTwpWr1B+UWe1KP8EkQDAmxXyYr2u7Ad5Bv/b22oD5An/L/NQb2BPGF7bg7KERqhHtsVNxYAAAAAAAAAKiCIBgAAAAAAAFRAEA0AAAAAAACogCAaAAAAAAAAUAFBNAAAAAAAAKACgmgAAAAAAABABQ0Nol24cMFNnDjR30Y0HE6dOnXf9H379vnXommaZ/ny5dGYwUlatrl+/bqbO3eu27hxYzTmHr0OP6e999atW/7zaNBz+4z2PcqJvw/A/dKsI2pRbf1iz+N1gL0/XgfF6bsmraOS/j5fLRq1XAAAAABoBU3JRNu7d6/r6+tzvb29btmyZaXGZZwajNOmTXNz5sxxmzZtisY2ngW7tP6enh7/Wbu7u93mzZsTG7lTp0718+ixP8OGDXM7d+70g54DSJb1OmKwRo4c6euJM2fOuCtXrkRjnTt79qx7/fXX3axZs6IxH6aA1YoVK6JXAzN+/Hh3/vx5t3jx4mhMfTRquQAAAADQCpranVOBpKVLl7ojR474IFXIGoxqHCvLQY3PerIMCmWwrF27Nhp7z7lz59yuXbvcunXrSuu1xqLGxVkmjB5tuVu3bvUZJxpvgbekTDR7rwa9T++X8PNpINMDRZRmHVGL/uoXBcoUMFPgzFy6dMl/jwkTJtxXJ6gOUfBQw8qVK/37lixZUqpT9L1tXqtXrJ558skn/aDPcfjwYf+o+cN66Pnnn79vPUbLj3+GSss14Xs1v9V1wEDF94M2qIyE08Ptz8qPtr20JH0uo7KkMmVl2Nh7NOh5SGVI84dltFbxz2G/m/22zaB1Jf1GQC2KUG9U+o79aUR9AoTSLIPVliN7Hv+M9hmOHj3qn1dTpvpTS1kVxRO0DGRfJq6J9vvf/943GGXbtm11bxxrB6KNctSoUT7TzBrpRgXHGrSDpQ3+pz/9qc+oOXjwYGIB0DgFAU6ePOkzbqZMmeI/140bN/zj9u3bfTbOhg0bfBYchQi4p9F1RC0q1S+qV1S/nDhxws+rHbl2pspQ0/yqE1RvqE7o6uryQbj29nb/PR955BE/TcF8vUcBNdUfet/ly5fdli1borU49+abb7oXXnjBB/8ffPDBaOwHlA339NNP++DktWvXfEBMtNyrV6/69du0HTt2+GnS33J1YKL36/MkfSZgMPKamRqybNR4gF1UhvTdGqnajPp6seMfoFGKUG9U+x1DzahPAMlyGVS7Qce9+nz6nKLjab1WjzGd8Nbzeu0TB1NWFQh86aWXolfIuqYG0dSA3LNnz4cCVs8995xvdOpg8sCBA9HY+lE3KjUg1bhVIbJGbT2NHj3aZ9GoEazvoQZlnA6U1dDW+sOuniNGjPCPnZ2dPnq9fv366B1AsaRVR9SiUv2icWGXTgWq9F20w7bG8+TJk32dMH36dB+I0k43Lgz22zIV/NJvJgrKjxkzxj9PorpHdYwGPVc2nGg5qn90oK1l6zcOlVuuDgZ0IKT36/No0G9Q7iQCMFB5zEwVlVkF1RctWuQHC7CLvouOAfSdZ8+e7ZelshaeQbcGsa1HQXybrgN109/n0DJsWfZ89+7dpfm1HA16rnFaltFn1HgNOoOvz65BzzXEM141JGXWhp9Pg30voBZ5rTdCSd8xqVzG6xOgGdIsgwMpR6Fwn2jL0L7MlmVlyoTlzfZ1Saotq1qv9o/aT4btH2RXU4Jo2ii0oSi7Qg3JeCaJsi20YSkDS5V9Kx5IjR07NnpWnjVa4+wAeeHChW7//v2lCDnSYRVbM4eZM2cmBk6KIu91hHXpVHA9DIapTrAdpr6/fgdlgsWD8NrBKmCmnbCCYJpXv4MCbuFOvT8K8Ov3jbOduWi9+mzV0Lz6rNXUfVmk79zs4Qtf+IJ76623ok+AwWrlzFSxwPsTTzzhBwuwi643qHpO5fC1117zAWw1BFR+tY/Q8YEaIDrIN3oez4Sv5nPEvffeez7j1OpZlW29V8vQssID/XIZsfou8YxX/T/xzFp9Rh3zrFmzppQZEP9eQD21er3Rn3LlMl6fAGlKu+fZQP3xj390p0+f9uVKl306dOiQH6/jZvUY035O+2XrRaL1V1KurOqEtPaD1t5B9jX1xgIadICm642FdBClcQsWLPAbTzUpj4NRLoilBq4KWaM3Wh2QJjWQtV6tX905478Nms+21WYOf/d3f+d+8YtfRJ+geLJSR9SiXP0iCpLpIFZZdtqBWvaW6gTbYfb3/XUmS9muWobqD5tXDVRlsg6WdvjKglGq+erVq6Ox1YlntLUa+w2bOej/+/a3vx19AlSi7TNvmakSZqBqkHiXTmPLU5aq6gGbPzyOSMqEr+ZzxOlYSKxe0roUeNdyTaWMWNUJSRmvceFvIDqRqPmz9n+i9eS13gjFv2Olcgk0U1plcDD7vf7YfnfSpEn+OFnHy7oEkx6tl4ZlminIpmusx1FW8ysT10QzajiqsawCZtfrqQdt5NrY1XhVw9uCVsYKR9gw19lQpXBat4N6iB8sa9k6cBwyZIg/YFU0WutXYUOxPP7444UOolWrUXVELSrVL2I7Su1kNc0aq2GdoB2odYdK2pmGwX6tR3VHrfWTBedU9+hsmn7T+Gcvx76TfW+ru+bPn/+hICDuUQBNB0vU8f3Lc2aqynZ4AG71R9ilM6SAmBoc9pvowFuvVWZNs7JB9fkqZcSWy3iNU3DNAm5oHv1/yoi17NhmDo2W53rDJH1HPS9XLovcwyGv1HPFylQzh2oUoQxqX6eyZSevyqGs5l+mgmiihqEitEqTrBdt5HbhQm20FhE2mq5rAqlBaBu1DlTVGEy6O+dgqWGpbDMrWOp2oUL16KOP+nVpvNb/wAMPlM4moxgIolWvEXVELSrVL8YCZ3YGSsI6QTtX7Ui1LC3TGteapsCagv3K2NPFWLUeNVYHmj2WRNl9ypDVMvWbalvUTj6pQR+n+tHqTQ16Xs86M4/++Z//2X3nO99xf/nLX6IxiMtzZqrdDVyDyrwGe510FlvlSt8x/E00qJtWNeqZKap6qV4ZseUy89FYP/zhD/2+JNyWmjU0Wt4z2iXpO/ZXLsMABvLh+PHjpf+4mUM1slIG67nfi1N50/F3peNkymoB3P3zalKHRQxKWutFvqW5XX3605/ue+ONN6JX2VK08kb9km9p/7/f+MY3/NCqGvX7dXd39909sO67e/AZjblf0nQ91+cp9556qPR9w8/V29vbt2zZsr67B8l9dw+S+06ePOnfv2HDBj+vHjWv3mPs/eE89n5bngY91zrs/fHfw9alx0qfI5w3fC7hOuLrD+fVcrV8LTM+XzhN4p81/jpcZ7Pp+xTB7373O/9d9ZiGRv3O8W0pLmm6nuvzlHtPPVT6vuHnqlReK33HcuVS9GjLRf00anuuJIvrbWQZrPR9B1KOjK1b001YhmyZ8eXYZ9Wjpmu++L6v0m8RrideVsPlorH0H9Qqc5lo9aJMrzwMKA6y0VpHUlll+GD40pe+FP1SSKJsNF0IXtfGQG1aKTNVZ9zVfcW6cpp4l3Druq33KztNy1OWqrLWlJlazfVT+/sctVC26d0D/QFnxMYza/VaN1LS/6Y6Q496Xel7YfCUhaZrEikTouhaNaO9nP7KZVifAFmRRs+zgdJ7lfWtcrVhw4ZSBrgelVWnXiXaL4tuaKD1V9JfWbVLvFhvFWRbmyJp0fNB0cFPjYsYlLTWi3xLc7v62c9+5n784x/7g52sKVp5o37Jtyz8vzq4e/HFF92vfvWraEzroD5AnhTh/1XXo09+8pPud7/7XWpBNOoN5Ela/y/rbbzw7tHVXjoBraUe21VuM9GAVmOZaL1cXBLIPd3NSY3Z73//+9EYtCodjDHUb0D9kYWWPUnbfqMHIG+StvNah7ikeRo9IPvIRAMCaW9XSh1+5pln3Je//OVoTDYUrbxRv+RbVv5fne1U2n53d3dLdWOjPkCe5P3/zUIWmlBvIE/S+n9ZL1C7emxXZKIBGcJ10YDiUODM7tYJAI1AFhoAAPVFJhoQSHu7+s1vfuO+8pWvuIsXL0ZjsqFo5Y36Jd+y9v8++uij7hvf+Ibv4tkKqA+QJ3n+f7OShSbUG8iTtP5f1gvUrh7bFZloQIY8/PDD/lHBNADFYNlof/7zn6MxAFA7stAAAKg/MtGAQBa2q2effdZ9+tOfdt/61reiMekrWnmjfsm3LP6/3/zmN/3jj370I/+YZdQHyJO8/r9ZykIT6g3kSVr/L+sFaleP7YpMNCBjuC4aUDzKRvvpT3/qjh49Go0BgMEjCw0AgMYgEw0IZGG76u3tdR/72MfcX/7yF9fe3h6NTVfRyhv1S75l9f/ds2ePe/HFF92vfvWraEw2UR8gT/L4/2YtC02oN5Anaf2/rBeoXT22q7pkoumDNHtIa70M+R6yQIEzstHSNWPGjOgZ0Dy6sYAavN///vejMQAwcGShAQDQOGSiAYGsbFc/+MEP3DvvvON27NgRjUlX0cob9Uu+Zfn/vXDhgpswYYLr7u5248ePj8ZmC/UB8iRv/28Ws9CEegN5ktb/y3qB2tVjuyKIBgSysl3p7pxf+cpX3MWLF6Mx6SpaeaN+ybes/7/KRPuf//kfd+jQoWhMthStfMycOdMdO3YseoW8ydv2bDcl0sm4LKHeQJ6ktT2nuV4gT2otRwTRgECWtqtx48b5C40//PDD0Zj0FK28Ub/kWyv8v48++qj7xje+4bt4Zg31AfIkT/9vVrPQhHoDeZLW/8t6gdrVY7vi7pxARnFdNKC4dLfO73znO+7Pf/5zNAYA+se10AAAaDwy0YBAlrarn/3sZ+7HP/6xO3LkSDQmPUUrb9Qv+dYq/+83v/lN//ijH/3IP2YF9QHyJC//b5az0IR6A3mS1v/LeoHa1WO7IogGBLK0XfX29rqPfexj7i9/+Yu/Y2eailbeqF/yrVX+X2Wh6SYDL7/8sps1a1Y0Nn3UB8iTvPy/Wb0WmqHeQJ6k9f+yXqB29diuCKIBgaxtV3PmzHHPPPOM+/KXvxyNSUfRyhv1S7610v+7Z88e9+KLL7pf/epX0Zj0UR8gT/Lw/2Y9C02oN5Anaf2/rBeoXT22K66JBmQY10UDik03FlCjWHfsBIAkXAsNAIDmIRMNCGRtu/rNb37jvvKVr7iLFy9GY9JRtPJG/ZJvrfb/XrhwwXfr7O7uduPHj4/Gpof6AHnS6v9vK2ShCfUG8iSt/5f1ArWrx3aV20y069evu7lz5/ofKRwmTpzoGyQDsW/fPrd8+XJ369ataAzQHA8//LB/VDANQDEpcGZ36wSAEFloAAA0V+67c548edJHGm04f/58Js7kA9WiSyeAb3/72z7jRNdIAwBRnWBBNAAA0ByFvSaastGefPJJn2FmWWqnTp2Kpjr/3DLXXn/99Wis89loSe/R8nQReA3KgFMmnMbp/ZrPxplwWpjlZuuNj0dxEUQDIJaNprt25kW4LwwHZYBbRvnGjRujuT+YP75PTZq3Wewz6TPHhZ/Lnsf37fb+Sp9dxwdJ66ikv89Xi0YtF9UrahaabXtFqjfi31WD6pKjR4/652EbZjDK/abVLnfr1q1+GUAzlSsftZaHalhMoBnrQvYU+sYCb775pps+fbrPUNuwYYM/w68CoZ3AihUrfBbb6dOn3R//+MfoHc5t2bLFH6zoPZqu+Wyn8d5777n169e7w4cP+9crV65027dv9/NOnTrVrV271i9fBf6FF15w+/fv99O0vEOHDt233t7eXr8MrQ/FZkE0AqpAsc2aNctfI7HR3Tq1f0qirJdvfetb0av62rt3r98f2rB48eJoyge0j1y4cKF/vm3bNjdy5Ej/XONnz57tjhw54l9nlT6vjgXOnDnjrly5Eo117uzZs/5knf7fcuz4YDCUfa8s/KTftBaNWi6qQxZaceoNtSv0/fR9xXrZ7Ny509cbeq66pR7sN1U7ZNmyZaVAXn8UCHzppZeiV8Wh/aHKYZJy+1E0RtjzTNeP1f6y0cGtYcOG+TJYr7KH1pL7INq0adPui0yHZ4A/8YlPuMmTJ/vn4cFrT0+PmzJlips0aZIvILo7mty4ccMXSJtX0zWf5hctr7Oz0z9XARZdDFoWLFjg3n//fb9T0rThw4e7MWPG+Gnr1q3zO/6k9RLdRnt7uw+kZf1AD0Dj6S6dP/3pT332QaN873vfi57dY8EzXbw8LWrE6cSU6ASUXZbBGshhxnja9Jkso0Mnz0I6ftBnVeDMXLp0yWex63hB+3w7XrGsGfvuet+SJUtKWTNquMaPbTTouTLtNehzqAFuGS82XcPzzz9/33qMlh//DJWWa8L3an473kL9cS20yvJSb/TH6gw92jJUtm1Z8XIY1hvxsh+ydoiOPa1Nk1TnaL2ql/RbWpunSLRfTAqmxfejaB6V8zVr1pSSYyTct4ZlImmfa8L9mebTe/TeRYsW+XE6DtNrTRO9V8uILytchy3LhNPCz4XsK9w10RQx1o5BRowYUQp6hS5fvhw9S2aBOQU3du3aVZo/vjztePRa82rHosw3BcrKLT8+Xu/t6OiIXqHI8tqlM9zhhIM1EvUY7ohsB6Z5wp1Qs9mBath4NPad7DuYcGeswd5r38l2nrZDrfT94u9DMXzsYx9r2k0G4sEz3f3vBz/4gX/eTH/60598o1L7VGV3W0PYfO1rX/ONvEceeSQakx6VRXVrGjVqlN/fWyPU6FhAAbMTJ074eVVfqKzrTLbm19lzZYLohFtXV5f/3jrWUAaNvp+m6cSb3qOGq45x7LgizFzX8YYyIZQp9uCDD0ZjP6BsuKefftr/bteuXStl0Gu5+t/thJ+m7dixw0+T/parOk7v1+dJ+kyoH/1HXAutf3mqNwZKPWjUk0b1g9op6u0iOu7YvHmz/95hHVPNMUS5Okd1l+ol/Y5abpFof6j9opQLpiEdSpKx5BUds6vHmW33om1X+98XX3zRj1eMQOXO9oV2jG6ZbZpPyTTyuc99zo9/7LHH/GtRGVJZ0v7ZlqV9Z7hujVdZSer5Fn4utIZCd+csRzuVchTUsoJgQ7muDEqDVqGw+eymBuWWHx+vndTNmzejVyiyRgfR0ui+FdIOJixT2gnFaYezatUqf0ConVCrpE/rcyvQZY1LfT/VITqQjQfaRN9L81T6fpZGHp4YQDHo4EzZJ8pKa5Sk4FkjM17UOLMAcxg4F5UVlXsJzyyL9qmqF7JC3TQVoNJ/pG5YFjQz8S6dqgvUWFaGmmWn6eBfZVqXm1BD1Q6uQzoDbtlrtkzV1/bbKKvdst2TqLGuE3Ua9FzZcKLlqE7RgbyWHc/UKbfcMBioz6NBv8HBgwd9QwH1RRbaPUWpNwZKdYfqEPVsUVtEQXsFAPRoZVjTtT79RufOnYve+QH9XvrdrJ6pVOcUlcpgUjAN2aF9q076hNu9tt2//vWv0Rz3qD2vQdu0yor1PFN98corr/hkGRk7dqx/DKkMK2in8iFajtoyeq/28XqUsK2vNgE90FoXQbQEKgA6cNVOxXYiosLz0EMPuQMHDvjXlo2StMGHyxBFtG0Hr4PWd999t3RNFDWkNWi8dqLherWTAh5++GH/+Jvf/MY/1lsWu2/FqVFnAbRygeu0WF2gA3mdiQqpPOtza2eqA0/RzlRB9aRgoeoTLUePtlydoVb9ofEWeFMdEc9Es/dq0Pus8Rp+Pg1JGXRoLQqg6cDM/tN6DqJGuj2qHohPrzeVawui60ywlRWjM7WaR2XJsipalXXp1AF02DBVIMu6ROl3VoBAmWCaL6Tyrjpa/7+OGzSvrseqYw6rCyrRgbwy3OJUN9h/rPVW25DXvPqsSY0L1Jf+e7LQ7ilSvVEr1Q2qIxT0UYO9HAtMqn5Qm0RZsHpers5JCvIXhX4HG7SfDPebEk6v1zBjxgy/bPRP+6QwEUV1gLZj/YbqUaZt96Mf/ahPIlDXbo2342lt05peTlIyTHx9IR232/+ndZv4OlS26IHWOgp3TTQNlaK82gmrcav3qsApQvzxj3/cT1u9erXfkWg5OtBVn+ukQJeWoR2P0jQ1r86I2QVN1YDWzscOlLU8LVfjlXJu6xWNB6QZXTq1LSZloKTt5Zdf9mVGGWtZC6Bph9tfN4ywkTxYCoLpOlhqDJTL7NC4MC1cZ7f0uXT2WY92kxP9hqqPkpaB1vHZz37W/fKXvyw1IOs5iDXQ9ah6ID69mbTNaj+rQLLKUitsv5bZlUR1gb6HTpTpeMSytxSAsi5R9ltbBntIDWA1hLUM1Tk2r4IIdqZ8MFSX6ey7MlcGeuyhg/8wow2NYwG0omehVZK3eqNWqjfU+NdxXn/B9jAwafVPf3VOPHBZJPY7aNB+MtxvSji9XsOxY8f8stE/BajCk0XxHi+27dpJbY1TBqdO2Os9SYGy/pQLgGkfr8HKjY7RTXwd/QXikD25DaKpYKiAhAXGBu1UVWiUmmmVv8aF3aL02ub/x3/8R/cv//IvfpoGzWfTrEEfX56EBTN+IBwuv9x66aaFUKODaM3uvhVSgMyC3GEGlSggZQckWewaVO9uGEnszLF2uJbBEqd0dTVitX6rpzSoUa1H7eD12+q3BirJ4rVeVL50gktlwDLCs0bdRRTA1kGzMs+tu2ZI30P7ep0Z1zTrMmI3OlJZViM3nmka0nv0Xi1f61GgIKl7+ECo3lBdY9klOoaKf/Zy7DvZ99agIOH8+fPvO/ZBbVQGyUIbmLzUGwOhsqflWCa8ggM6FtCjdSVXvaL5FDRXskAljahz8iCrJ5+LTO0EBc11XK79mvatCl5Z+0HbrfatqhN0oxxtz0Yns2xfqJPgovfpuP6tt97yr5PoGFsBMJUPUVa31vG3v/3NvxYrc0bvoQda66I7J9AiFERTZWzBpnoOEqah62AgPr2RwjNESZkXmm47JmVVJTUq86yaLlLlzmDbwa7S1XV3Mp1lBqqhg8isXevFrvGjYLAanFmjg+9Nmzb55zpA1kFxUlDdAmeaZlmqqveUMaruVDoTrmCWlqVlWiNb03Rgrt9BZVmZ61qPAuz1yFzXncTVLVPLVCNE+51KmStGgQo1APReDXqe1GUdg0cW2uDkpd6olt6rk/yqH3T8ZCf89ageNKpzLENHx1RafyUqz+XqHDsBYHVZUaR58hn303ZpbRZth9qXWkBK+1aVfY3XdNUBKm/K/H7iiSf89qzxysSeN2+ef4+2be37bHl6v3oAlKNgfdgDTWVY69DNB1RWtA49/+IXv1i64YHt8+mB1qLuNlprUodFDEpa60W+FXW70ve+e2Beerx7MBBNuadRv0tPT0/f3YO9vrsHedGY+2m8pms+e63PcvdAzr9ulErft7u7u+/uztd/Dntu3yH+nU6ePOmXp8ckd3ekfXcP7v2g5+H84XoknBZ/n+bRvHpPKHyPlJuvSCr9v0X33e9+N3p2P9ULVk8UCdtLvrXK/6vyp88a3z+3CuqNxosfM6Bx9P8mHS+bcvvRVpVW+S1avYHmqMd2RSYaAC+L3bfinn32WX+GVWd4wvTrNFXqhmFnwJU+bp9ZqeHqWlnPrhBhVzDRspWBNmTIEH+2TVktWr9+O6A/5e7Wa5lpuJ/OOjOUH770pS9FvxRqQRZaviSVlVqHuKR5Gj0USX+ZZ+X2owDygSAagBJrJMeDaVmhdGm7cP+OHTuisemq1A1D03VNMuvmpINMpYbrWkH17OoUdgXTOnT9OKWWP/roo35dGq/1P/DAA2WvqwZg4Pr67nVFZ0ge/uM//iP6pTBYXAstf5LKSq2DjgN0SQzrvpk0T6MHACiCtrsVXk01nhpraVSaaa0X+VbU7UpnzJLOmtmBu4Yi/S7UL/nG/1ubov1+bC/51gr/r53MauVMUOoN5Anbc3NQjtAI9diuCKIBAbarZEX7XSp9X03Pg6Ju65Tz2lAfIE+y/v/qZJaywpUh3spdOak3kCdsz81BOUIj1GO7IogGBNiukhXtd2E7yDf+39pQHyBPsv7/5iELTag3kCdsz81BOUIj1GO7IogGBNiukhXtd2E7yDf+39pQHyBPsvz/5iULTag3kCdsz81BOUIj1GO74sYCAAAAQMZwR04AALKHTDQgwHaVrGi/C9tBvvH/1ob6AHmS1f83T1loQr2BPGF7bg7KERqhHttVzUG0mTNnuuPHj0evgNY2Y8YMd+zYsegVDAcLyBP+39pQHyBPsvr/5uVaaIZ6A3nC9twclCM0Qj22q5qDaADyj4MF5An/b22oD5AnWfx/85aFJtQbyBO25+agHKER6rFdcU00AACAMpShDDQT10JrfdQbyBNtzwo8NHuQpPEMDLUM9aifyUQDUJEqnCJVFUX7vkXD/1sb6gPkSdb+3zxmoQn1BvKE/xcoNoJoACri4Bd5wv9bG+oD5EnW/t+8XQvNUG8gT/h/gWIjiAagIg5+kSf8v7WhPkCeZOn/zWsWmlBvIE/4f4FiI4gGoCIOfpEn/L+1oT5AnmTp/81rFppQbyBP+H+BYiOIBqAiDn6RJ/y/taE+QJ5k5f/NcxaaUG8gT/h/gWIjiAagIg5+kSf8v7WhPkCeZOX/zXMWmlBvIE/4f4FiI4gGoCIOfpEn/L+1oT5AnmTh/817FppQbyBP+H+BYiOIBqAiHSwAecKub/BoDCNPsvD/5j0LTag3kCf8v0CxEUQDUBEHv8gT/t/aUB8gT9L+f4uQhSbUG8gT/l+g2D4SPQIAADTVhQsX3MSJE32DJBz27dvnrl+/7ubOnes2btwYzf3B/Bqv6aLp9r5wfLPYZ9Jnjot/h3Lf99SpU356f27duuWX0+zvh8b64Q9/6J577rlcB9DqjXrj3rB8+XJfLwAAmosgGgAASNXevXv9WX0bFi9eHE35gBqSCxcu9M+3bdvmRo4c6YNP69evdydPnnS9vb2uq6vL7dixw8+TZfZ99ZmXLVtWVXBsy5YtVQXbMHDqTqmMsCQvvPBC9Kz+tE4LomHgilpvaOju7nZnzpxxhw4diqai2dKqNwCkjyAaAADINAWYVq5c6Z/v37/fjR8/3j+fOnWqb1DqcdiwYT6bJ+1AU5g1snbt2mhsMn3mpUuXuiNHjvhGsSgzJZ5ponFq9Gu+2bNn+/lQX+pSmdQo/t73vhc9qz+y0Borr/WGdHZ2ulGjRrlLly751/FstTDDLT4t/K5pZ+S1ujTqDQDpI4gGAAAy609/+pNvVCqAtH379lJDOE4NxYMHD/qskrQo4LV161bfuO3p6SkFyKqlxu2SJUt8hozef/nyZZ+BpgybDRs2uDlz5rjXXnstmhv1ogv665pkUq5RXG9koTVW3usNzXft2jU3duzY0vv1PRUcVF2xefNm/90skLhmzZrSNMt8VX2j7VDZeAria3mtkJGXFWnUGwCygSAaAABIlQJH5bIh1BjctWuXf75nz57EawBZQ/H1119306dPj8Y235UrV3wXKzWC1W1swoQJPvBVjr6LvpPm0bxHjx4tPdf7lSmjRlnSd0Z9KRspqVHcKGSh1a5o9Ub4fTWPAmMKsCubbufOnT47TRlnylo1FhybPHmyf71u3Tp3+PDhUv2i9ylQr+Xpd8DANLveAJANBNEAAECqwmv9WAMvpMwszaNGcfwaQGocW8aJri82b968aEp2WWO4vb3dN551rSY9V8BM30ONYU1XY1jZaMoUQeNYYEKDGsEKcIk9htPrNfz6178mC61GRas39F3sOopi2XMKBiqIqGu/qduq5jOqP8qxruOizLb+Av74sLA8N6vemDlzpl82gHQRRAMAAJml7kfKmFAjUY0866ZklEWhRrKmbdq0yWdlpM2uU1RO2Pg/f/6872pm12bS91CDtr/gAOrLfmsNyiix4JY9htPrNRw7dowstAbKY70h+pyrVq1yjzzySKlbprLNynVbVaBNGWaqU0IKIp44ccIH5FavXh2NxUCE5blZ9cbx48f9sgGkiyAaAADIPAWS1BVJDcIDBw74cbqmj7K11KC0O++lacyYMW7KlCn+c4WN22rNmjXLz6/3WXaJGspoPGUBqhuWMkpEjWJ100Jry2O9oUDZ/Pnz/TwKsitzVd9FWWd6v7qvGusaqq7iouwzdflUF1IFcS3TVcsZSF2Fe6g3gGIiiAYAA1SucauDUxq8QONMmjTJZ06oAawGpzUM1UBWY1HdXVQ206IsEWW1iBq2dr2zailzRllq06ZN8+9XFolliViATeNRX0mNYLLE8iOP9cazzz5byrATBdXUTVzvf+CBB0rZZwoQKlComyfoe2oey1hbsGCBv16a3qPlPP7441wYfwCoN4DiautTbigA9EMHXkWqKip9XwXRdDFfHXyGt81XEE3dMXTWG9lVtO253qgPkCf6f9X9SkNSA/iFF17wA2pDvYE8SaveYLsCsoFMNAAYhI6ODn/WVreVL3fnPJ3x1gGPhuXLl/v5NOj57t27fZcKTbMMNj3X2XAF6cTmtWVoeQCyxcpnMwfUV38ZJATQ0AhJ5TorA6pDvQEUF0E0ABikr371q/7x3Llz/jGkCxivWLHC3x3M7qynCxkbvef06dN+urpXjB071s+n7lu6Nolofh2g6ayj5tPywgsjA0ifymezBwCtLalcZ2UAAPSPIBoADJKuY7J06dLSHbJCuhaJLhSsa7HYfMoku3Hjhp8+ffp0P17XIlm0aJHPQNNrO6up5Wl+XQdJtBwtL36HLQAAAABAcxBEA4Aa6ELgGix7zOiOVyEFy9QF1CjjrBq6wLi6V7S3t/vb8ceXCwAAAABoDoJoAFAj3eHq5Zdf9nfDMvEgmTLIbt68Gb2qjoJuutV92M1CNzQAAAAAADQfQTQAqJHuzvnUU0+VbjUvyjw7c+aMv/aZbhCgW9YrY23EiBHRHP3Tbekfeughd+DAAf9a10LTjQi4uQAAAAAApIMgGgDUwbx589yyZcuiV/cCa9u3b/fdMdUVU1avXu0fq6X5r1696rtzTpgwwa1Zs8YH4gAAAAAAzdfWx21YAFSgIE6Rqoqifd+i4f+tDfUB8oT/tzmoN5Anaf2/bFdANhBEA1ARB7/IE/7f2lAfIE/4f5uDegN5ktb/m9Z6Z86c6Y4fPx69AlrbjBkz3LFjx6JXg0MQDUBFHPwiT/h/a0N9gDzh/20O6g3kSVr/b9HWCzRCPbZngmgAKirazpODhXzj/62Nfj8gT6gPGq9o9a4yd2rNdEB2pbU9F229QCPUY3smiAagoqLtPDlYyDf+39pQHyBP+H+bg3oDeZLW/1u09QKNUI/tmbtzAgAAAAAAABUQRAMAAAAAAAAqIIgGAAAAAAAAVEAQDQAAAAAAAKiAIBoAAAAAAABQAUE0AAAAAAAAoAKCaAAQM2PGjOgZAAAAAFRv48aNrq2t7UPDqVOnojnQygiiAUDM8ePHo2cAAAAAMDBz5sxxPT09rq+vzw8bNmzwwbXr169Hc6BVEUQDAAAYJB0Mz507N5Wzzbdu3XLLly/nzDYK5cKFC27ixIkfKnP79u0rlUc1VI3Nr/HWeA2zRMLxzWKfSZ85Lv4dyn1fyj3QWsaOHeuuXbvmA2vSXz0UTtN+Xvt7idcHSXUIGo8gGgAAQI1OnjxZOtvc3d3tVqxY0fBG7rBhw9zOnTvd1KlTozFAOl544YXo2f2uXr3qvvWtb0Wv6mvv3r2lMqdh8eLF0ZQPqMG5cOFC/3zbtm1u5MiRvlyuX7/el9ne3l7X1dXlduzY4efJsvD76vm0adMIpAEt5NKlS27UqFGus7PTl13Vj6qDdMyg4JrVQwqMabqCbZp25swZd+jQIR9I27p1q9u+fbuvB5TZtnnzZl/PobkIogEAANTR+PHj3Zo1a9yePXtKZ491QJx0Vjkc39+ZaM1nmWeLFi3y444ePXpfJpplsMSXFa7DlmXCaeHnAgbie9/7XvTsHgueffKTn4zGNJ+2/5UrV/rn+/fv9+VSFHRWA1SPCkSPHj36vjKRhjC7ZO3atdHY8ubNm+eWLVt2Xx1TLnPFyvju3btL6wizV8J6Iz4NwOAdOXLEB8ysbKksqnwpmK/6RyfBtmzZ4iZMmOBef/11/x6V2xMnTvjpmk/11vnz5/1JAjtxpmWqLOtkANJBEA0AAKDOJk+e7N5//31/llkNZJ0x1hllvRYdOKvx+uKLL/rxatQvXbrUHT582E+3hqzGa7rmu3Hjhh/3uc99zo9/7LHH/GvRgbca3+vWrSstS2e1w3VrvDJYrOGtacqYs4wc0ecCBisePPvd737nfvCDH/jnzfSnP/3Jlwc1YpW1YQG0OJWBgwcP+my0tKgsKrtEGSrKPFHZ1efujwX/Ll++7MuuAmhqoOv9GjQ+Xpbfe+893xhXfaA6QPWPBjXOLbCoumDJkiWpBxWBPLBroqlcieqZ9vZ2/1z7eAXWRPNoXlF5VvlNYgFvZdfqxID250gHQTQAAIAGOnv2rHvwwQfdmDFjfONXjWQFG/76179Gc9yjxqwGOxM9a9YsP14BgFdeecWNGDHCv9Z1VeKuXLnig3Y6oy1ajgJqeq8a5BZECIMFOnCfMmWKmzRpUulz0XjGYCUFzxToaRQFeyzDI57FqS5Ou3bt8s/DbK2Q5lemmjJApk+fHo1tPpVddddS+VPmicqwNairoeC6yq1lrmjQshQcVJDQWL0RXpdJwXXVD1bXqC6wDDcA9aGyqeC16iTrlql9vMra6tWro7nuUZBN+2kdI8TrLSuv/Z0YQHMQRAMAAKgzNVBv3rwZvXL+4FkHx2rw61pGOtP80Y9+1F9LSmeVNd66YPV3JlqSsmbi6wuF3by0bhNfh7qIdHR0RK+QN3fu3HFf+MIXSttCPQf54Q9/WHpUMC0+vd7Ca4Qpg1PBo5CyPzSPNVxDKmeWqaaGrLpHtioF0RQUSwquh5LqDdUBjzzyiC/7ABpnwYIFvqwpQK19fJhJqvrLsk91QktBfQXWFWC37DPtx1VOtQy9T+MJdqeHIBoAAECd6SA37Lqhs9DW4A8b/TqbrC5WGqcDZ3XBsjPRA1EuAKYMFevmpXVYtxKJr6O/QBxanzKu9P+G22G9BnnuuedKj8pEi09vJpU3ZX+o8amsrvjFt1XOFFzTtE2bNvmGa9p00fFqKQioTBWVYQUs1RV0IO83er+2C5V9AI2jfb2ulapgmS61oKCagt/ad6t+evzxx0vZZ8oknz9/vs9K1XSVU2WsaRkaryxcjX/ggQcovykhiAYAAFBHaqzroFhdqtQ41/XRFLyyRrzOKCvrTAe/Tz755H3d0JRNovfoLLVuHCB6nxr7b731ln+dRAfUCpCou4foeitax9/+9jf/WnRwHp651nt0tvvcuXOlaQo8IJ+0vSmLoVHUfVPBM1FgR9071ShMkwLV6tas737gwAE/TkFlXZBbv4XdsTNN6uatbtX6XKoLrMtWf1RmFQRUHaO6QuXW3m8ZKmpsV+ryZV1Hra4Jlwtg8FTvxDNkFRzTSQW71IKdQNOjyrxuGmABfbu+qYZy41999VX/yH67+QiiAcAg6YA17K4S3tFKjV67C1Y4qPEsarCqgat5wrPjYhcb1aM1nuPz2HgA2aBuklbO1TDVNUvswFYHy2q0a7ymq+5Q9osa8U888YQPZmm8rpFi3cp01lkBCFue3v/Zz37WT0uiA3UFBHSjAL1HjWitQzcf0FlsrUPPv/jFL5ZueKDPpc+pz24Zc/HrsyA/1FBrZBBNFNBJCqalya7zpTKksmcBIwXWrEwqYy0tahyrrIrKqcpu0v49vAacyqwC81bHqGGt53q/Bj3XuEpUb+hYw45n4ssFAHxYW5/ClwDQDx1YFamqqOb76oBTjVW7bb6CYqtWrfLdsXSmSUGuf/qnf3L/+q//WjoTrLPDdrFvHdRr/j/84Q/uS1/6kh8vWs53v/tdf3D/1FNP+QZ1uFyjg141uHV2CgNTtO253qgPkCdF+n9nzJjhA0mzZ8+OxtSPru2nIU6BYF0jTQP1BvIirf+3aOsFGqEe2zOZaAAwQNbtSdc2sACZziQr2PXzn//cB8uS6Iyvzu6GF/PWHbEUMNMyRRcRFcsW0HIVQFPAzObRo15rPAAA1Whkd86kAJpYZhrup0Zc1gcAQDKCaAAwQAp0vfvuu/46RyEF1F555ZWy11dRcE0ZbOHFvD/xiU+4//3f/y0Fz86ePesbOX//93/vX4vWo/XZPHpUd6w0u58AAFrHxYsX/Y0n1NUP6VMWRNYHAEAygmgAMAgjRoyo2Bh57733Stdb0aD5dbHe8FojGvfQQw/54JkyzJQpEA/O6aLDDz74YOnuO5pX7ykXrAMAINTILDQAAIqEIBoADMKNGzcq3lJaWWa6y5bO6OpCvbpQcFL2mLp06tb0yjBTVlo8OGddOnUxZLvrlt4DAEA1CKIBAFAfBNEAYIAsM0wZYSEFuHTHzaRroin7TMPatWtL1zYzylbTxZf/8z//s2yGmbqAqiuognF6rhsTAABQDYJoAADUB0E0ABggZYapW+bmzZv9XThFgTEFyHQR5XLdLJ999ll/U4Fz585FY+5pb2/3j88991zZDDMF2uTLX/6yz0rTZwAAoBoE0QAAqA+CaAAwCMoq2759e+maZwqEKYC2bt26aI4PU3BNwbeNGzf67qDGumuqu6cFy+L0Xq1TjaD4NdMAAChHlx7QzWg+/elPR2MAAMBgtfVx+xUAFShIVKSqomjft2j4f2tDfYA8KcL/+9prr/mTN8eOHYvGNB/1BvIkrf+3aOsFGqEe2zOZaAAAAEBO0ZUTQC0+9alP+cADA0MeBm3PtSITDUBFqnCKVFUU7fsWDf9vbagPkCdF+H+/9rWvuRkzZrivf/3r0Zjmo95AnqT1/7JeoHb12K7IRAMAAChDwQeglWUlE00Nl6IMRfu+RRsAFBuZaAAq0gFDkaqKon3fouH/rQ31AfIk7//vnTt33NChQ93t27fdkCFDorHNR72BPEnr/2W9QO3qsV2RiQYAAADkkGWhpRlAAwAgTwiiAQAAADnETQUAAKgvgmgAAABADhFEAwCgvgiiAQAAADl0/vx5gmgAANQRQTQAAAAgh8hEAwCgvgiiAQAAADlz8eJF19HR4To7O6MxAACgVgTRAFQ0Y8YMfzvgogySNJ4hH4O2ZwDIO7LQADTahQsX3MSJEz90rHXq1Kn7pu/bt8+/Fk3TPMuXL4/GDE7Sss3169fd3Llz3caNG/3rcp9Tn+HWrVt+HqBaBNEAVHTs2DHX19fHwJCLQdszAOQdQTQAzbJ3715/jNXb2+uWLVvmg1cKZMUpgDZt2jQ3Z84ct2nTpmhs89jn1NDd3e3OnDnjDh06FE0FqkMQDQAAYJDsbHf87Ladha9EDY2ks+hArRRE+/znPx+9QpbEs2SM6oL4OKCVDBs2zC1dutQdOXLEB6lCygZbsWKFD6BpWx85cmQ0pT7CbLO1a9dGY8tTV/dRo0a5S5cu+dfxbLVw3xyfFu7jVWZtvMp1UvAQ+UIQDQAAoEYnT5687+y2GgrVBtKARiATLfsOHjzoG+dA3v3+9793K1eu9M+3bdtW9wCaumRu3brVB8V6enpKgbz+aL5r1665sWPHlt6/fft2vx/fsGGD27x5sy+fCorps69Zs6Y0zTLttJ+/evWqz8DTvl/L27FjR7QG5BVBNAAAgDoaP368P9jes2dP6VorOqNtZ6p1NlsH5hq3fv16t2TJktIZ76T5gIFS4/D9999348aNi8Yga3TTh8cff9w33Mtdk0kNdKsP7NpNGvR89+7dpcwY1RuWDRNmwti8tgwC+2g0bXPa9ynbbMKECdFY55577jkf1FJw/8CBA9HY+rly5YrvmqngmQJ0Wrc+Q5z2t1YeNI/21YsXL/YZdDt37vTZaSpX2jcbC45NnjzZv163bp07fPiwX8/UqVP9+7Zs2eKXp++H/COIBgAAUGc62FYQQ2en1XBVo0KBDZ3Fnj9/vm9E6MBdZ7R1jRY9LzcfMFBkobWGr371q/7x3Llz/jGkALoyWpXlqnpE1FA3es/p06f9dAUGlE2j+bq6unwDXzT/6NGjfX2i+bQ8AvOtK60bfVXDglPt7e0+mBXPNlN9pGCU9nkKUKUV0NX+1q7bJiovYl2sFy5c6Pbv3+/nM5cvX46efZid+BLtu5MCd8gfgmgAAAANpDPVdtZa1NhNUu18QCUE0VqDXT/KuoaF1CCfMmWKmzRpUmk+BR5u3Ljhp0+fPt2PV+bMokWLfABArxU0E+tqNmvWLP9ay9HytFy0prRu9FWN8IL958+f9xnZIWV8adyCBQt83ZS0zdeDXd+sPyonq1atuu9zKMCnTDl154x/dgXaVKfGy46y7k6cOOEDcqtXr47GoggIogEAANSZDrZv3rzpn8e7VOmMfZJq5wMqIYjWOhQ8twB6KJ79omCZuoAay6CpRHdCVH2iDKFdu3b1m1UDNJpd7kABq/g2X4sxY8b4ILECx2FQrBx9DmV72+dQ+VKdqfKh9ysr3FjX0KNHj/rXyj5Tl091IVXQWu9RdpuW0986kR8E0QAAAOpMB9Vq5KrharfP10G2ztKH3URC1c4HVEIQrbUoO+fll1/2/5uJB8nCwHy1FHRTMMEyhDSo6ziQJmVNKiilC/fXi7LLNm3a5J8rIGbXZevPs88+e9/nUFBNJ6/0/gceeKCUfabscHVP1Y1A7ASXZayp7Op6aXqPlqPrHOpGA8g3gmgAAAB1pGsO6WBa3a90YB+Kn+Eup9r5gLg7d+4QRGsxaow/9dRT9wUV1CjXtaV07TO7WLsy1kaMGBHN0T81/B966KHSdRVVLyl7Jq1rUSGftO2q+2a54GzSdG2bytrS+FrEl23LVbBYF/vXc90EQCp9Dk3XvBZsfvXVV/2jypzY+2160ng9KhNN60a+EUQDAACokXWZ0qCuHzpLbQfZOuuuzDRlpekA/plnnvFnqtUw1nXPdFZb3UPKzQcMhAXQhgwZEo1BK5g3b17pYueixrnqEdUtqhNkoNdd0vyqQ6xeUjc6q5eAVmf73CwOyLe2PoVNAQAAqqCDwyIdOhTt+xZNHv/fn/zkJ+748ePupZdeisakj3oDecL23ByUIzRCPbYrMtEAAACAnKArJwAAjUMQDQAAAMgJgmgAADQO3TkBAEDV6MaCPMnj/6u7yl28eNFfmD4rqDeQJ2zPzUE5QiPUY7siEw0AAADIAQXPOjo6MhVAAwAgTwiiAQAAADmgrpyf//zno1cAAKDeCKIBAAAAOcD10AAAaCyCaAAAAEAOEEQDAKCxCKIBAAAAOUAQDQCAxuLunAAAoGrclQx5kqf/t6enx33mM59xN2/ejMZkB/UG8qSI2zOQJ7WWXzLRAAAAgBZHFhqARlHQodlDWutlyPdQDwTRAABA1WbMmOHPShdlkKTxDPkYtD3nBUG07MjTdgUAuB/dOQEAAIAW97Wvfc0Hb77+9a9HY7JDAcsiNTmK9n2Lhu25OShHaIR6bFdkogEAAAAtjkw0AAAaj0w0AAAAoIXduXPHDR061N2+fdsNGTIkGpsdZO4gT9iem4NyhEaox3ZFJhoAAADQwiwLLYsBNAAA8oQgGgAAANDC6MoJAEBzEEQDAAAAWhhBNAAAmoMgGgAAANDCCKIBANAcBNEAAACAFkYQDUDRXL9+3c2dO9dfKD4cTp06Fc3ROLdu3XLLly9vyrqQPQTRAAAAgBZ18eJFN3z4cNfZ2RmNAYDiOHnypL/boobu7m63YsWKhge3hg0b5nbu3OmmTp0ajUGREEQDAAAAWhRZaK2n1gyajRs3un379kWvytN8Wo/WZy5cuOCefPLJ+8bVgz67MnOUodNIjfr8yIfx48e7NWvWuD179pS2RW2bVsbCbTQcHy8nKjs2TfNZ5tmiRYv8uKNHj96XiRaW6XBZ4TpsWSac1oyyg/ohiAYAAAC0KIJorasZGTRHjhxxhw8fjl41jjJylJmjDB0gTZMnT3bvv/++6+3t9UHXDRs2+PKl17JlyxYf5HrxxRf9eJW/pUuXlsqJBaitXGq+Gzdu+HGf+9zn/PjHHnvMvxYFv9auXevWrVtXWtaOHTvuW7fG7927txTc0zSVd9UB4edCayCIBgAAALQogmj5kJRBo8a8ZapMnDjRN7w1bv369W7JkiWlxn7SfEbLfPnll+8bFyqXKWOZNzbe1iValtaj8ZZBo/fpuYINety9e3dpHr3XMnvCLJ34OmzdWr6yzeLT9L6VK1e6V1991S1evNi/Dj9LPJsIOHv2rHvwwQfdmDFjfIBXAa6rV6+6v/71r9Ec92h70qBt8sSJE27WrFl+vMrlK6+84kaMGOFfjx071j+Grly54oN2EyZM8K+1HAXU9F4FsfUoXV1d/lF6enrclClT3KRJk0qfy7Z/ZB9BNAAAAKBFEUTLjzCDRg1qBdTU2FYWy/z5892BAwd8A13ZLcpq0fNy8xltG0899dR944wCUOUyZQ4dOuRGjx7tx2vZCiwoQKXhhRdecPv37/fTNI/mjTt37pw7ffq0z7RRwE/BB30vBRIs40eZN7YOzafMHAv2vfnmm2769Ol+mj6jPld7e7vbtm2b71JnQT0F1RQo1HzKhlNGkD4/ikvb682bN6NXzu3atctvOwq0Tps2zV2+fNl99KMf9dvxwoUL/XgFbLXdaBvV9HLCQJiJry8UdgvVuk18HbqmZUdHR/QKWUcQDQAAAGhBarwp6DJu3LhoDPJCASEFm0aOHOlfJ2XASDXzKUNLwbZ4pkt/mTIhLVtdNfWogJtuZKHMHlHGjYJ5cQqAKcNGwQEFvfQZ9FpBM1EwTp/HMn6UkaPMHG3T8olPfMIHFcXmidO8Cjxo2bJgwQL37rvv+swgFJcCVNqWFTgTBWEVZLXByou2+/Pnz/tx2l4V1NV7ypWDcsoFwKzMaTvVOhQoNvF19BeIQ/YQRAMAAABaEFlo+RI2pONdHZXNlaSa+RQwULAr7CpqymXKWGDMplkArr8snVC1gQitU8tX8EIZQ7Z8dZ+rdMfZeOBB81u3OxSTMhk3b97su0cqaKtArIJXluGo7V3lRXVn/AYVCkBboFc3DhC9b86cOe6tt97yr5Nou9N2qACzKEtS6/jb3/7mX4vKncqf0XvOnDnjMzZtGnf6bB0E0QAAAIAWRBAtX8IMGusiqe5lymJRV8sk1c6nTC/5t3/7N/8o/WXKiF0oXdN1cXUFFAaapdMfZe9YV1IbkrLayolnAOlz2gXgURwWiNWg65Jt3769FJBStpmuIajxFgzetGmTrzefeOIJvw1pvLorz5s3z79n9erV/rpptjy9/7Of/ayflkRBanUzVndkvUcBMa1DNx9QedE69PyLX/xiqbu2Ppc+pz67ZcxpvWgNBNEAAACAFkQQLT/iGTQhZcuEWSzl9Deflrlq1Sr3i1/8IrHbWDxTRhk74c0E1IVTwQANYZdJzadhoBR4eOihh0rXatP31w0CLOOtGvos+i52jTUtyy4ij/zTNqT/PgzCaohndOm1TQu7Pitga+PDO8vqUa9tmt5v42zZ8ddh11BbR7gcTft//+//+ZsU2PrDzxWuH9lHEA0AAABoQQTRWlt/GTS6zpcy05Slosb+M88847NjFOxStzO7O2d/88Wpoa+L8Btlp5XLlHn22Wd9UE2fTdMV3FPjP57Zo3UNNoMmnvGjz2bfvxwLnFnGmjKAFHzUMizLiGAEgEZq61PoEwAAAEDLuHPnjhs6dKi7ffu2GzJkSDQ2mxTgKFKTo2jft2jYnpuDcoRGqMd2RSYaAAAA0GIsCy3rATQAAPKEIBoAAADQYujKCQBA8xFEAwAAAFoMQTQAAJqPIBoAAADQYgiiAQDQfNxYAAAAAGgxHR0d7u233/Z3K8w6LsSOPGF7bg7KERqhHtsVmWgAAABAC7l48aIbPnx4SwTQAADIE4JoAAAAQAuhKycAAOkgiAYAAAC0EIJoAACkgyAaAAAA0EIIogFolhkzZvjrSDV7kKTxDAy1DNqea8WNBQAAAIAW0tXV5f77v//bjRs3LhqTbWq4FKnJUbTvWzT8v0CxEUQDAAAAWkRPT4/7zGc+427evBmNyb6ZM2e648ePR6+A1qZMlmPHjkWvABQNQTQAAACgRbz22mtu48aNNOIBAEgB10QDAAAAWgTXQwMAID0E0QAAAIAWQRANAID0EEQDAAAAWgRBNAAA0sM10QAAAIAWcOfOHTd06FB3+/ZtN2TIkGgsAABoFjLRAAAAgBZgWWgE0AAASAdBNAAAAKAF0JUTAIB0EUQDAAAAWgBBNAAA0kUQDQAAAGgBBNEAAEgXNxYAAAAAWkBHR4d7++23XWdnZzQGAAA0E5loAAAAQMZdvHjRDR8+nAAaAAApIogGAAAAZBxdOQEASB9BNAAAACDj3njjDYJoAACkjCAaAAAAkHHnz58niAYAQMoIogEAAAAZR3dOAADSRxANAAAAyLCenh73/vvvu3HjxkVjAABAGgiiAQAAABlGFhoAANlAEA0AAADIMIJoAABkA0E0AAAAIMMIogEAkA0E0QAAAIAMI4gGAEA2tPXdFT0HAAAAkCF37txxQ4cOdbdv33ZDhgyJxgIAgDSQiQYAAABklGWhEUADACB9BNEAAACAjKIrJwAA2UEQDQAAAMgogmgAAGQHQTQAAAAgowiiAQCQHdxYAAAAAMiojo4O9/bbb7vOzs5oDAAASAuZaAAAAEAGXbx40Q0fPpwAGgAAGUEQDQAAAMigN954g66cAABkCEE0AAAAIIO4HhoAANlCEA0AAADIIIJoAABkC0E0AAAAIIMIogEAkC0E0QAAAICM6enpcX/4wx/cuHHjojEAACBtBNEAAACAjCELDQCA7CGIBgAAAGQMQTQAALKHIBoAAACQMQTRAADIHoJoAAAAQMYQRAMAIHva+u6KngMAAABI2Z07d9zQoUPd7du33ZAhQ6KxAAAgbWSiAQAAABliWWgE0AAAyBaCaAAAAECG0JUTAIBsIogGAACqNnPmTNfW1sbAkItB23MWEUQDACCbuCYaAAComgIPHDogL7K6PSu4t27dOjd79uxoDAAAyAKCaAAAoGoE0ZAnWd2eOzo63Ntvv+06OzujMQAAIAvozgkAAABkxDvvvOOGDx9OAA0AgAwiiAYAAABkBNdDAwAguwiiAQAAABlBEA0AgOwiiAYAAABkBEE0AACyiyAaAAAAkBEE0QAAyC6CaAAAAEAG9PT0uJs3b7px48ZFYwAAQJYQRAMAAAAygCw0AACyjSAaAABAg2zcuNG1tbXdNyxfvtzdunUrmgP4gIJoEydOjF4BAICsIYgGAADQQHPmzPHd9Pr6+vzj5cuX3apVqwik4UPIRAMAINsIogEAADTJyJEj3bp169yuXbvcuXPn/LgLFy747CPLVDt16pQfryCbstY0PP/8837a3Llz3fXr1/102bdvX+l98WloPQTRAADINoJoAAAATdTZ2ekDJcpIUwBt4cKFbs2aNT5Tbe/evW7FihV+vDlz5ox7+umnXXd3t7t27Zo7fPiwH68A2ubNm/343t5e19XV5dauXUuGW4u6c+cOQTQAADKOIBoAAEBKzp496x8nT57sH5VNNmrUKHfgwAH/WvRagTcNen7p0iUfKDtx4oSbMmWKGzNmjBs2bJhbunTpfRluaC0WQBsyZEg0BgAAZA1BNAAAgJQoIGZBsnKUYdbe3h69ukeZZ8pkGz16tA+gofWRhQYAQPYRRAMAAGgi3VxAARMFx8aOHeu7aGrcQCiopvdfvXqV7ps5QRANAIDsI4gGAADQJAp47dmzxy1btsxNmjSp1I3TunXqemcKqi1YsMC/LkfZZ9OnT/fXS7ty5cqHlovWQxANAIDsI4gGAADQQEeOHPHdNXUHTeuWuXXrVh8IGz9+vNu/f7+/QYCm61GvNb6SxYsX+xsSTJgw4UPLReshiAYAQPa19elWUAAAAFVQoIdDB+RFVrbnd955x82ePdtf5w4AAGQXmWgAAABAishCAwCgNRBEAwAAAFJEEA0AgNZAEA0AAABIEUE0AABaA0E0AAAAIEUE0QAAaA0E0QAAAICU9PT0uJs3b7px48ZFYwAAQFYRRAMAAABSQhYaAACtgyAaAAAAkBKCaAAAtA6CaAAAAEBKFESbOHFi9AoAAGQZQTQAAAAgJWSiAQDQOtr67oqeAwAA9Kutrc1x6IC8SHt7vnPnjhs6dKi7ffu2GzJkSDQWAABkFUE0AABQta6uLvfb3/42egW0tk996lPu8uXL0avm+/Wvf+2efvppd/78+WgMAADIMoJoAACgamll7pABh0ZIe7v6yU9+4o4fP+5eeumlaAwAAMgyrokGAAAApIDroQEA0FoIogEAAAApIIgGAEBroTsnAACoGt05kSdpb1cdHR3u7bffdp2dndEYAACQZWSiAQAAAE32zjvvuOHDhxNAAwCghRBEAwAAAJqMrpwAALQegmgAAABAkxFEAwCg9RBEAwAAAJqMIBoAAK2HIBoAAADQZATRAABoPQTRAABAXVy4cMFNnDjR3/EwHE6dOnXf9H379vnXommaZ/ny5dGYwUlatrl+/bqbO3eu27hxo39d6XMCjdbT0+Nu3rzpxo0bF40BAACtgCAaAACoq71797q+vj7X29vrli1b5oNXCmTFKWg1bdo0N2fOHLdp06ZobPPY59Sg5/osBNLQDGShAQDQmgiiAQCAhhg2bJhbunSpO3LkiOvu7o7G3qNssBUrVvgAmrLHRo4cGU2pjzDbbO3atdHY8ubNm+cDfnv27HG3bt3y4xT8syw1ZcrZeMue2717d2kdYQacZb7Ze5Oy41BsBNEAAGhNBNEAAEBT/f73v3crV670z7dt21b3AJqCXVu3bnWjRo3y3eYskNcfBfxGjx7tLl++7DPoFEBTsEzv16DxW7Zsiea+57333nPnz593GzZs8ME3Bc80LF682E2dOtVnuJ08edItWbKEDDfcR0E0BWABAEBrIYgGAAAaQsEsBZeUbTZhwoRorHPPPfecD2opkHDgwIFobP1cuXLFnTlzxgfPFKDTuvUZqnXjxg0f9FIgTO/XoGUdPHjQZ7iZsWPHlh6vXbvmg23KuNN3mzVrlp82adKkUoYbYMhEAwCgNRFEAwAAdaXMK3VjbG9v98GseLaZggcKNimDa/369ZnL0lIQTUExC5KV09XVFT37gDLW9P06OzujMcg663bbzKGjo4MgGgAALYggGgAAqKvwgv3q7jh+/Phoyj1r1qzx4xYsWOADCeVuPFCrS5cuRc8qU9bc1atXfWDsk5/8pO8KOpD3G71fWUbKSkNrsG21mcMvf/lLN2TIkOgTAACAVkEQDQAApEKBNAXU1P3x8OHD0djajRkzxk2ZMsVnuCk4Z10s+3Pu3Dm3a9cu321T10ZTV057vwZ1x5w/f/6HAoJx1nX06NGj/nW4XAAAALQ2gmgAACA1uoulgk6bN2+OxtRONwnYtGmTf65ulXZdtjjrdqph2rRp/iYACp7JunXr/HO9X4Oea1wl6raqu3EqAJe0XAAAALSutj7llAMAAFRBgaE0Dh3SWi/yje0KAAAMBEE0AABQtawG0TQ96zjkyh6CaAAAYCAIogEAgKplNYgGDAbbFQAAGAiuiQYAAAAAAABUQBANAAAAAAAAqIAgGgAAAAAAAFABQTQAAAAAAACgAoJoAAAAAAAAQAUE0QAAAAAAAIAKCKIBAAAAAAAAFRBEAwAAAAAAACpo67sreg4AANCvtra26BmQDxwKAwCAahFEAwAAVVMQLY1Dh7TWi3xjuwIAAANBd04AAAAAAACgAoJoAAAAAAAAQAUE0QAAAAAAAIAKCKIBAAAAAAAAFRBEAwAAAAAAACogiAYAAAAAAABUQBANAAAAAAAAqIAgGgAAAAAAAFABQTQAANDyrl+/7ubOnes2btwYjbln3759HxoHAAAADAZBNAAAkBsHDx50Fy5ciF4BAAAA9UMQDQAA5EJHR4d7/PHH3datW92tW7eisfc7deqUa2tr88Py5cv9fBr0fPfu3W7ixIl+mmWw6bky3JTpJjavLUPLAwAAQDEQRAMAALnx1a9+1T+eO3fOP4aUobZixQp38uRJ19vb68dt2bLFP4rec/r0aT99yZIlbuzYsX6+rq4ud/jwYT+P5h89erTr6+vz82l5ZL4BAAAUA0E0AACQG8OGDXNLly71WWSWPWZ6enrclClT3KRJk0rzKZPsxo0bfvr06dP9+M7OTrdo0SKfgabXCpqJlqf5Z82a5V9rOVqelgsAAID8I4gGAAByZerUqX6w7DFz+fLl6Nk9CpapC6hRxlk1pk2b5rtytre3u127dn1ouQAAAMgngmgAACB3FixY4F5++WX3+uuvR2M+HCRTBtnNmzejV9VR0K27u9t357Rh8eLF0VQAAADkGUE0AACQO+PHj3dPPfWU27x5czTmXubZmTNn/LXPdIOAPXv2+Iy1ESNGRHP0b+TIke6hhx5yBw4c8K91LTTdiICbCwAAABQDQTQAAJBL8+bNc8uWLYte3Qusbd++3XfHVFdMWb16tX+slua/evWq7845YcIEt2bNGh+IAwAAQP619akfAgAAQBUUPErj0CGt9SLf2K4AAMBAkIkGAAAAAAAAVEAQDQAAAAAAAKiAIBoAAAAAAABQAUE0AAAAAAAAoAKCaAAAAAAAAEAFBNEAAAAAAACACgiiAQAAAAAAABUQRAMAAAAAAAAqIIgGAAAAAAAAVEAQDQAAAAAAAKigre+u6DkAAEC/Zs6c6Y4fPx69AlrbjBkz3LFjx6JXAAAA/Ws7/+YlgmgAAAAAAABAP8hEAwAAAAAAACrgmmgAAAAAAABABQTRAAAAAAAAgAoIogEAAAAAAAAVEEQDAAAAAAAAKiCIBgAAAAAAAFRAEA0AAAAAAADol3P/H9jVbYWMGsfjAAAAAElFTkSuQmCC;" vertex="1" parent="1">
          <mxGeometry x="10.5" y="920" width="1233" height="362" as="geometry" />
        </mxCell>
        <mxCell id="iJVxOnU3X22Zu05dpuTJ-60" value="Conceitual" style="text;html=1;align=center;verticalAlign=middle;resizable=0;points=[];autosize=1;strokeColor=#6c8ebf;fillColor=#dae8fc;fontSize=11;fontFamily=Helvetica;" vertex="1" parent="1">
          <mxGeometry x="77" y="18" width="80" height="30" as="geometry" />
        </mxCell>
        <mxCell id="iJVxOnU3X22Zu05dpuTJ-61" value="Logico" style="text;html=1;align=center;verticalAlign=middle;resizable=0;points=[];autosize=1;strokeColor=#6c8ebf;fillColor=#dae8fc;fontSize=11;fontFamily=Helvetica;" vertex="1" parent="1">
          <mxGeometry x="27" y="860" width="60" height="30" as="geometry" />
        </mxCell>
      </root>
    </mxGraphModel>
  </diagram>
</mxfile>
